<svg xmlns="http://www.w3.org/2000/svg" xmlns:xlink="http://www.w3.org/1999/xlink" version="1.1" id="Capa_1" x="0px" y="0px" viewBox="0 0 233.847 233.847" style="enable-background:new 0 0 233.847 233.847;" xml:space="preserve">
<path style="fill: rgb(255, 255, 255);" d="M232.327,128.552l-18.769-24.796c-2.537-3.354-6.257-5.277-10.205-5.277  c-3.948,0-7.668,1.924-10.205,5.276l-18.769,24.797c-2.499,3.304-1.849,8.007,1.454,10.507c3.304,2.499,8.006,1.848,10.507-1.453  l10.231-13.519c-3.665,46.802-42.919,83.764-90.645,83.764C55.79,207.851,15,167.061,15,116.924  c0-50.138,40.79-90.928,90.927-90.928c10.326,0,20.453,1.716,30.102,5.099c3.909,1.37,8.189-0.688,9.559-4.596  c1.371-3.908-0.687-8.188-4.596-9.559c-11.247-3.944-23.045-5.944-35.065-5.944C47.519,10.996,0,58.515,0,116.924  c0,58.408,47.519,105.927,105.927,105.927c55.4,0,100.996-42.752,105.547-96.995l8.893,11.75c1.476,1.947,3.717,2.974,5.986,2.973  c1.576,0,3.166-0.495,4.52-1.52C234.176,136.559,234.826,131.856,232.327,128.552z"></path>
<g>
</g>
<g>
</g>
<g>
</g>
<g>
</g>
<g>
</g>
<g>
</g>
<g>
</g>
<g>
</g>
<g>
</g>
<g>
</g>
<g>
</g>
<g>
</g>
<g>
</g>
<g>
</g>
<g>
</g>
</svg>