<svg xmlns="http://www.w3.org/2000/svg" xmlns:xlink="http://www.w3.org/1999/xlink" version="1.1" id="Capa_1" x="0px" y="0px" width="612.002px" height="612.002px" viewBox="0 0 612.002 612.002" style="enable-background:new 0 0 612.002 612.002;" xml:space="preserve">
<g>
	<g id="Pin">
		<g>
			<path d="M603.279,184.48L427.559,8.722c-5.47-5.489-13.292-8.377-20.636-8.721c-7.727,0.096-15.09,3.596-20.406,9.199     c-31.117,32.608-46.015,77.055-41.368,121.463l-57.814,57.834c-27.54-10.672-57.165-16.237-86.77-16.237     c-63.763,0-123.72,24.824-168.74,69.845l-4.284,4.227c-5.393,5.374-8.434,12.68-8.434,20.311c0,7.612,3.002,14.917,8.415,20.311     l117.485,117.485L4.169,580.961C1.549,584.231,0,588.362,0,592.876c0,10.576,8.549,19.125,19.125,19.125     c4.514,0,8.664-1.549,11.915-4.169l176.504-140.837L325.029,584.48c5.374,5.374,12.68,8.415,20.292,8.415     c7.593,0,14.898-3.022,20.272-8.415l4.265-4.266c67.416-67.415,87.822-167.821,53.684-255.567l57.815-57.814     c44.656,4.59,89.046-10.461,121.443-41.329c5.585-5.336,9.123-12.699,9.199-20.406     C612.096,197.371,608.749,189.931,603.279,184.48z M497.25,210.261c-6.675,0-13.35-0.669-19.929-2.065     c-9.485-2.027-19.373,0.918-26.239,7.784l-81.97,81.97c-8.683,8.683-10.882,21.956-5.45,32.972     c31.04,62.998,22.873,137.394-19.354,191.709L89.371,267.674c31.652-24.671,70.399-38.04,111.174-38.04     c27.846,0,55.692,6.464,80.535,18.724c10.978,5.412,24.25,3.251,32.972-5.451l81.97-81.97c6.866-6.866,9.811-16.753,7.765-26.24     c-1.396-6.655-2.085-13.311-2.085-19.947c0-14.382,3.213-28.535,9.353-41.387l127.583,127.602     C525.899,207.067,511.632,210.261,497.25,210.261z" style="fill: rgb(255, 255, 255);"></path>
		</g>
	</g>
</g>
<g>
</g>
<g>
</g>
<g>
</g>
<g>
</g>
<g>
</g>
<g>
</g>
<g>
</g>
<g>
</g>
<g>
</g>
<g>
</g>
<g>
</g>
<g>
</g>
<g>
</g>
<g>
</g>
<g>
</g>
</svg>