<svg xmlns="http://www.w3.org/2000/svg" xmlns:xlink="http://www.w3.org/1999/xlink" version="1.1" id="Capa_1" x="0px" y="0px" viewBox="0 0 26 26" style="enable-background:new 0 0 26 26;" xml:space="preserve">
<g>
	<path style="fill: rgb(255, 255, 255);" d="M25.917,11.567C25.203,5.062,19.695,0,13,0C5.82,0,0,5.82,0,13c0,6.893,5.368,12.517,12.149,12.957   C12.432,25.975,12.713,26,13,26s0.568-0.025,0.851-0.043c6.304-0.409,11.383-5.298,12.066-11.524C25.969,13.962,26,13.485,26,13   S25.969,12.038,25.917,11.567z M13,24c-3.052,0-5.817-1.252-7.812-3.267l6.527-4.999l2.358,2.358   c1.55-1.551,1.834-3.172,1.537-4.844l0.015-0.012l4.928-3.758c0.404-0.324,0.344-0.761,0.053-1.052l-3.171-3.168   c-0.269-0.27-0.658-0.35-0.988,0.053l-3.888,4.947c-1.657-0.268-3.246,0.016-4.775,1.545l2.358,2.358l-4.997,6.524   C3.203,18.7,2,15.989,2,13C2,6.935,6.935,2,13,2s11,4.935,11,11C24,19.065,19.065,24,13,24z"></path>
</g>
<g>
</g>
<g>
</g>
<g>
</g>
<g>
</g>
<g>
</g>
<g>
</g>
<g>
</g>
<g>
</g>
<g>
</g>
<g>
</g>
<g>
</g>
<g>
</g>
<g>
</g>
<g>
</g>
<g>
</g>
</svg>