<svg xmlns="http://www.w3.org/2000/svg" xmlns:xlink="http://www.w3.org/1999/xlink" version="1.1" id="Layer_1" x="0px" y="0px" viewBox="0 0 496.88 496.88" style="enable-background:new 0 0 496.88 496.88;" xml:space="preserve">
<g>
	<g>
		<g>
			<path d="M128,160.44H64v64h64V160.44z M112,208.44H80v-32h32V208.44z" style="fill: rgb(255, 255, 255);"></path>
			<path d="M176,224.44h64v-64h-64V224.44z M192,176.44h32v32h-32V176.44z" style="fill: rgb(255, 255, 255);"></path>
			<path d="M352,160.44h-64v64h64V160.44z M336,208.44h-32v-32h32V208.44z" style="fill: rgb(255, 255, 255);"></path>
			<path d="M176,336.44h64v-64h-64V336.44z M192,288.44h32v32h-32V288.44z" style="fill: rgb(255, 255, 255);"></path>
			<polygon points="122.344,266.784 96,293.128 69.656,266.784 58.344,278.096 84.688,304.44 58.344,330.784 69.656,342.096      96,315.752 122.344,342.096 133.656,330.784 107.312,304.44 133.656,278.096    " style="fill: rgb(255, 255, 255);"></polygon>
			<path d="M380,304.44h-4v-16h-16v16h-4c-19.848,0-36,16.152-36,36c0,19.848,16.152,36,36,36h24c11.032,0,20,8.968,20,20     c0,11.032-8.968,20-20,20h-24c-11.032,0-20-8.968-20-20v-12h-16v12c0,19.848,16.152,36,36,36h4v16h16v-16h4     c19.848,0,36-16.152,36-36c0-19.848-16.152-36-36-36h-24c-11.032,0-20-8.968-20-20c0-11.032,8.968-20,20-20h24     c11.032,0,20,8.968,20,20v12h16v-12C416,320.592,399.848,304.44,380,304.44z" style="fill: rgb(255, 255, 255);"></path>
			<path d="M464,112.44h32.88L408,3.808L384.576,32.44H352c0-17.648-14.352-32-32-32s-32,14.352-32,32h-48c0-17.648-14.352-32-32-32     s-32,14.352-32,32h-48c0-17.648-14.352-32-32-32s-32,14.352-32,32H24c-13.232,0-24,10.768-24,24v320c0,13.232,10.768,24,24,24     h220.216c14.264,55.112,64.272,96,123.784,96c70.576,0,128-57.424,128-128c0-32.336-12.152-61.824-32-84.376V112.44z M408,29.072     l55.12,67.368H448v172.24c-9.632-7.736-20.392-14.096-32-18.816V56.44c0-9.264-5.328-17.224-13.024-21.224L408,29.072z      M304,32.44c0-8.824,7.176-16,16-16c8.824,0,16,7.176,16,16v64h-32V32.44z M240,48.44h48v48h-48V48.44z M192,32.44     c0-8.824,7.176-16,16-16c8.824,0,16,7.176,16,16v64h-32V32.44z M128,48.44h48v48h-48V48.44z M80,32.44c0-8.824,7.176-16,16-16     s16,7.176,16,16v64H80V32.44z M16,56.44c0-4.416,3.584-8,8-8h40v48H16V56.44z M241.112,384.44H24c-4.416,0-8-3.584-8-8v-264h48     h64h48h64h48h64h16v-16h-16v-48h40c4.416,0,8,3.584,8,8v40h-16v16h16v132.216c-10.248-2.656-20.936-4.216-32-4.216     c-70.576,0-128,57.424-128,128C240,373.872,240.448,379.184,241.112,384.44z M480,368.44c0,61.76-50.24,112-112,112     s-112-50.24-112-112s50.24-112,112-112S480,306.68,480,368.44z" style="fill: rgb(255, 255, 255);"></path>
		</g>
	</g>
</g>
<g>
</g>
<g>
</g>
<g>
</g>
<g>
</g>
<g>
</g>
<g>
</g>
<g>
</g>
<g>
</g>
<g>
</g>
<g>
</g>
<g>
</g>
<g>
</g>
<g>
</g>
<g>
</g>
<g>
</g>
</svg>